<svg viewBox="0 0 48 48" xmlns="http://www.w3.org/2000/svg" xmlns:xlink="http://www.w3.org/1999/xlink" width="48" height="48">
<defs>



 <path fill="#8b41d1" id="i-463" d="M22,10c2.757,0,5-2.244,5-5c0-2.758-2.243-5-5-5s-5,2.242-5,5C17,7.756,19.243,10,22,10z M22,2c1.654,0,3,1.346,3,3 s-1.346,3-3,3s-3-1.346-3-3S20.346,2,22,2z M40,19c0-1.527-1.149-2.777-2.627-2.963l-0.372-7.09l-1.998,0.105L35.368,16h-0.187 c-2.456-0.904-6.198-2.416-9.509-3.752C18.754,9.455,17.542,9,17.026,9c-1.273,0-2.124,1.252-2.946,2.465 c-0.348,0.514-0.996,1.469-1.292,1.564c-0.823,0.207-1.473,0.318-1.994,0.408C8.094,13.904,8,14.633,8,18v4 c0,2.793,0.08,4.4,1.719,4.947l2.184,0.73L9.014,44.834c-0.124,0.732,0.086,1.465,0.59,2.063C10.188,47.588,11.084,48,12,48 c0.975,0,2.282-0.471,2.971-2.705l3.566-11.564l4.589,3.828l1.911,7.682C25.467,46.969,26.574,48,28,48c1.654,0,3-1.346,2.995-3.1 c-0.992-9.916-1.275-10.291-2.12-11.402l-5.874-7.83l0.016-6.412l11.762,2.719l0.905,0.01l1.317,25.068l1.998-0.105l-1.316-25.033 C39.007,21.604,40,20.418,40,19z M37,20h-1.882l-14.096-3.258l-0.023,9.59l6.283,8.377C27.79,35.377,28.069,35.744,29,45 c0,0.551-0.448,1-1,1c-0.589,0-0.881-0.676-1.022-1.242l-2.068-8.316l-7.397-6.172L13.06,44.705C12.661,46,12.164,46,12,46 c-0.325,0-0.666-0.156-0.868-0.395c-0.122-0.145-0.17-0.293-0.146-0.439l3.173-18.844l-3.808-1.271 c-0.07-0.023-0.091-0.039-0.091-0.039C10.087,24.83,10,23.816,10,22v-4c0-1.064,0-2.164,0.095-2.355 c0.115-0.076,0.607-0.16,1.04-0.236c0.555-0.096,1.245-0.215,2.14-0.439c1.018-0.254,1.719-1.287,2.461-2.381 c0.344-0.508,0.975-1.438,1.263-1.576c0.81,0.219,4.582,1.74,7.926,3.09c3.4,1.373,7.255,2.93,9.737,3.838L34.827,18H37 c0.552,0,1,0.447,1,1C38,19.551,37.552,20,37,20z"/> 
</defs>

<use x="0" y="0" xlink:href="#i-463"/>

</svg>